<svg fill="#FFFFFF" xmlns="http://www.w3.org/2000/svg"  viewBox="0 0 24 24" width="24px" height="24px"><path d="M20.729 16.954c-.094-.118-2.342-2.905-6.485-3.918-.432-.104-.883.026-1.192.342L12 14.458l-1.052-1.08c-.309-.317-.76-.446-1.192-.342-4.143 1.013-6.392 3.8-6.485 3.918C3.095 17.175 3 17.449 3 17.73v2.02C3 20.44 3.56 21 4.25 21h15.5c.69 0 1.25-.56 1.25-1.25v-2.02C21 17.449 20.905 17.175 20.729 16.954zM12 2C9.794 2 8 3.794 8 6v1c0 2.206 1.794 4 4 4s4-1.794 4-4V6C16 3.794 14.206 2 12 2z"/></svg>