<svg fill="#FFFFFF" xmlns="http://www.w3.org/2000/svg"  viewBox="0 0 100 100" width="50px" height="50px"><path d="M 56.666016 23.333984 L 30 36.667969 L 30 63.332031 L 56.666016 76.666016 L 56.666016 23.333984 z M 80.337891 26.667969 L 75.623047 31.380859 C 85.890047 41.646859 85.887047 58.348141 75.623047 68.619141 L 80.337891 73.332031 C 93.215891 60.451031 93.228891 39.558969 80.337891 26.667969 z M 70.910156 36.095703 L 66.197266 40.8125 C 68.644266 43.2565 69.992188 46.522953 69.992188 50.001953 C 69.992188 53.477953 68.641359 56.743359 66.193359 59.193359 L 70.90625 63.90625 C 78.57525 56.23725 78.576156 43.760703 70.910156 36.095703 z M 10 36.667969 L 10 63.332031 L 23.332031 63.332031 L 23.332031 36.667969 L 10 36.667969 z"/></svg>
